<?xml version="1.0" encoding="UTF-8" standalone="no"?>
<!-- Created with Inkscape (http://www.inkscape.org/) -->

<svg
   xmlns:dc="http://purl.org/dc/elements/1.1/"
   xmlns:cc="http://creativecommons.org/ns#"
   xmlns:rdf="http://www.w3.org/1999/02/22-rdf-syntax-ns#"
   xmlns:svg="http://www.w3.org/2000/svg"
   xmlns="http://www.w3.org/2000/svg"
   xmlns:sodipodi="http://sodipodi.sourceforge.net/DTD/sodipodi-0.dtd"
   xmlns:inkscape="http://www.inkscape.org/namespaces/inkscape"
   id="svg3355"
   version="1.1"
   inkscape:version="0.91 r"
   xml:space="preserve"
   width="318.745"
   height="318.75"
   viewBox="0 0 318.745 318.75"
   sodipodi:docname="MICO24-verd.svg"><metadata
     id="metadata3361"><rdf:RDF><cc:Work
         rdf:about=""><dc:format>image/svg+xml</dc:format><dc:type
           rdf:resource="http://purl.org/dc/dcmitype/StillImage" /><dc:title></dc:title></cc:Work></rdf:RDF></metadata><defs
     id="defs3359"><clipPath
       clipPathUnits="userSpaceOnUse"
       id="clipPath3369"><path
         d="m 0,255 254.996,0 0,-255 L 0,0 0,255 Z"
         id="path3371"
         inkscape:connector-curvature="0" /></clipPath></defs><sodipodi:namedview
     pagecolor="#e4e4e4"
     bordercolor="#666666"
     borderopacity="1"
     objecttolerance="10"
     gridtolerance="10"
     guidetolerance="10"
     inkscape:pageopacity="0"
     inkscape:pageshadow="2"
     inkscape:window-width="1920"
     inkscape:window-height="1053"
     id="namedview3357"
     showgrid="false"
     inkscape:zoom="1.9344223"
     inkscape:cx="83.49032"
     inkscape:cy="167.73754"
     inkscape:window-x="1366"
     inkscape:window-y="146"
     inkscape:window-maximized="1"
     inkscape:current-layer="g3367" /><g
     id="g3363"
     inkscape:groupmode="layer"
     inkscape:label="MICO24"
     transform="matrix(1.25,0,0,-1.25,0,318.75)"><g
       id="g3365"><g
         id="g3367"
         clip-path="url(#clipPath3369)"><g
           id="g4151"><path
             d="m 220.22757,9.427754 -185.45915,0 c -13.96778,0 -25.3308,11.360935 -25.3308,25.328718 l 0,185.527908 c 0,8.46444 4.19888,16.31207 11.23174,21.00065 6.74113,4.62814 15.80779,5.60753 23.68876,2.45056 l 77.60528,-31.65725 c 3.28825,-1.30238 7.24332,-1.43158 10.82539,-0.16254 l 77.83242,31.80312 c 7.89764,3.17364 16.88303,2.21301 23.77003,-2.43389 6.98285,-4.72192 11.16714,-12.57163 11.16714,-21.00065 l 0,-185.527908 c 0,-13.967783 -11.36302,-25.328718 -25.33081,-25.328718 M 34.70383,235.45661 c -3.01319,0 -5.90969,-0.87937 -8.35192,-2.54017 -4.26556,-2.86524 -6.77238,-7.58507 -6.77238,-12.63206 l 0,-185.527908 c 0,-8.397757 6.78905,-15.170141 15.18889,-15.170141 l 185.45915,0 c 8.38317,0 15.1889,6.772384 15.1889,15.170141 l 0,185.527908 c 0,5.04699 -2.49015,9.76682 -6.70779,12.59664 -4.15095,2.80064 -9.55635,3.35702 -14.2616,1.43575 l -78.07621,-31.87606 c -6.3973,-2.24634 -12.58414,-2.02129 -18.23335,0.22506 l -77.62195,31.68434 c -1.85667,0.74808 -3.84254,1.1065 -5.81174,1.1065"
             style="fill:#80cc28;fill-opacity:1;fill-rule:nonzero;stroke:none"
             id="path3375"
             inkscape:connector-curvature="0" /><g
             transform="translate(107.3691,114.9165)"
             id="g3377"><path
               inkscape:connector-curvature="0"
               id="path3379"
               style="fill:#ffffff;fill-opacity:1;fill-rule:nonzero;stroke:none"
               d="m -21.815917,-13.638127 0,30.279853 -13.040487,-19.7962012 -0.291733,0 -12.911291,19.6336642 0,-30.117316 -9.99604,0 0,46.400213 11.021274,0 12.17779,-19.604491 12.19446,19.604491 10.987934,0 0,-46.400213 -10.141907,0 z" /></g><path
             inkscape:connector-curvature="0"
             id="path3381"
             style="fill:#ffffff;fill-opacity:1;fill-rule:nonzero;stroke:none"
             d="m 101.05257,147.67567 10.19192,0 0,-46.40021 -10.19192,0 0,46.40021 z" /><g
             transform="translate(133.2988,114.5415)"
             id="g3383"><path
               inkscape:connector-curvature="0"
               id="path3385"
               style="fill:#ffffff;fill-opacity:1;fill-rule:nonzero;stroke:none"
               d="m 6.286969,-14.044556 c -13.626038,0 -23.784615,10.5815909 -23.784615,23.9013088 l 0,0.097939 c 0,13.1863542 9.9626988,23.9638232 24.1909581,23.9638232 8.7582559,0 13.9677829,-2.900665 18.2833549,-7.1308 l -6.495238,-7.4913 c -3.598741,3.256996 -7.228739,5.209527 -11.8693856,5.209527 -7.7976195,0 -13.4134893,-6.476484 -13.4134893,-14.424138 l 0,-0.1271122 c 0,-7.9476539 5.470003,-14.5575014 13.4134893,-14.5575014 5.2907956,0 8.5477916,2.1171517 12.1944606,5.44082968 L 25.301741,-5.7447377 C 20.531899,-10.854242 15.241103,-14.044556 6.286969,-14.044556" /></g><g
             transform="translate(154.127,114.5415)"
             id="g3387"><path
               inkscape:connector-curvature="0"
               id="path3389"
               style="fill:#ffffff;fill-opacity:1;fill-rule:nonzero;stroke:none"
               d="m 28.860795,-14.044556 c -14.292858,0 -24.5493741,10.67953 -24.5493741,23.9013088 l 0,0.097939 c 0,13.1863542 10.4023831,23.9638232 24.6785701,23.9638232 14.328282,0 24.582714,-10.650357 24.582714,-23.836711 l 0,-0.1271122 c 0,-13.1884378 -10.419053,-23.9992478 -24.71191,-23.9992478 M 42.909846,9.9546919 c 0,7.9414021 -5.828418,14.5512501 -14.049051,14.5512501 -8.206047,0 -13.903185,-6.476484 -13.903185,-14.424138 l 0,-0.1271121 c 0,-7.9476539 5.845089,-14.5575014 14.032381,-14.5575014 8.222717,0 13.919855,6.482735 13.919855,14.4595623 l 0,0.097939 z" /></g><g
             transform="translate(145.3613,97.819804)"
             id="g3391"><path
               inkscape:connector-curvature="0"
               id="path3393"
               style="fill:#ffffff;fill-opacity:1;fill-rule:nonzero;stroke:none"
               d="m 19.360435,-32.167713 c 1.179437,0.75434 2.392215,1.544104 3.540395,2.360958 4.315572,3.061118 8.303985,6.891162 8.303985,14.128236 0,9.6209541 -8.068515,14.6596083 -16.037007,14.6596083 -4.940715,0 -9.1395935,-1.6253723 -12.127778,-4.7114959 -3.27991797,-3.3799409 -4.9886427,-8.4019244 -4.8115188,-14.1324044 l 0.00834,-0.395924 9.6793006,0 0,0.412595 c 0,4.859446 1.7816582,10.0523026 6.7890552,10.0523026 3.840463,0 6.43064,-2.6506076 6.43064,-6.5931766 -0.05001,-4.680239 -4.184292,-7.382942 -7.830961,-9.773072 -0.529287,-0.341745 -1.05024,-0.687658 -1.546187,-1.029403 -7.7830332,-5.257454 -14.5054064,-9.798078 -14.5720884,-20.698491 l -0.00834,-0.412595 34.2849374,0 0,8.774927 -21.121505,0 c 2.41722,3.073621 5.772155,5.247035 9.018732,7.357935" /></g><g
             transform="translate(165.9277,98.822704)"
             id="g3395"><path
               inkscape:connector-curvature="0"
               id="path3397"
               style="fill:#ffffff;fill-opacity:1;fill-rule:nonzero;stroke:none"
               d="m 41.650519,-31.080759 0,4.225968 -9.6793,0 0,-4.225968 -9.898101,0 18.193751,28.9128732 -10.842067,0 -18.527161,-29.3671442 0,-8.99581 21.073578,0 0,-8.383171 9.6793,0 0,8.383171 4.01342,0 0,9.450081 -4.01342,0 z" /></g></g></g></g></g></svg>